<mxfile host="app.diagrams.net" agent="Mozilla/5.0 (Windows NT 10.0; Win64; x64) AppleWebKit/537.36 (KHTML, like Gecko) Chrome/135.0.0.0 Safari/537.36 Edg/135.0.0.0" version="26.2.8">
  <diagram name="第 1 页" id="I7Iv7LB4VhXqc6U_c91o">
    <mxGraphModel dx="1160" dy="775" grid="1" gridSize="10" guides="1" tooltips="1" connect="1" arrows="1" fold="1" page="1" pageScale="1" pageWidth="827" pageHeight="1169" math="0" shadow="0">
      <root>
        <mxCell id="0" />
        <mxCell id="1" parent="0" />
        <mxCell id="qub3S1aiYJMEABr2UBQj-3" value="" style="edgeStyle=orthogonalEdgeStyle;rounded=0;orthogonalLoop=1;jettySize=auto;html=1;" edge="1" parent="1" source="bHfebhYa-iCUwpoHOR2e-1" target="bHfebhYa-iCUwpoHOR2e-2">
          <mxGeometry relative="1" as="geometry" />
        </mxCell>
        <mxCell id="bHfebhYa-iCUwpoHOR2e-1" value="开始" style="rounded=1;whiteSpace=wrap;html=1;arcSize=50;" parent="1" vertex="1">
          <mxGeometry x="30" y="140" width="120" height="40" as="geometry" />
        </mxCell>
        <mxCell id="qub3S1aiYJMEABr2UBQj-4" value="" style="edgeStyle=orthogonalEdgeStyle;rounded=0;orthogonalLoop=1;jettySize=auto;html=1;" edge="1" parent="1" source="bHfebhYa-iCUwpoHOR2e-2" target="bHfebhYa-iCUwpoHOR2e-3">
          <mxGeometry relative="1" as="geometry" />
        </mxCell>
        <mxCell id="bHfebhYa-iCUwpoHOR2e-2" value="新建毕业生离校任务" style="rounded=0;whiteSpace=wrap;html=1;" parent="1" vertex="1">
          <mxGeometry x="190" y="130" width="120" height="60" as="geometry" />
        </mxCell>
        <mxCell id="qub3S1aiYJMEABr2UBQj-5" value="" style="edgeStyle=orthogonalEdgeStyle;rounded=0;orthogonalLoop=1;jettySize=auto;html=1;" edge="1" parent="1" source="bHfebhYa-iCUwpoHOR2e-3" target="bHfebhYa-iCUwpoHOR2e-4">
          <mxGeometry relative="1" as="geometry" />
        </mxCell>
        <mxCell id="bHfebhYa-iCUwpoHOR2e-3" value="输入离校学生的筛选条件" style="rounded=0;whiteSpace=wrap;html=1;" parent="1" vertex="1">
          <mxGeometry x="354" y="130" width="120" height="60" as="geometry" />
        </mxCell>
        <mxCell id="qub3S1aiYJMEABr2UBQj-6" value="" style="edgeStyle=orthogonalEdgeStyle;rounded=0;orthogonalLoop=1;jettySize=auto;html=1;" edge="1" parent="1" source="bHfebhYa-iCUwpoHOR2e-4" target="bHfebhYa-iCUwpoHOR2e-5">
          <mxGeometry relative="1" as="geometry" />
        </mxCell>
        <mxCell id="bHfebhYa-iCUwpoHOR2e-4" value="生成毕业离校任务明细" style="rounded=0;whiteSpace=wrap;html=1;" parent="1" vertex="1">
          <mxGeometry x="510" y="130" width="120" height="60" as="geometry" />
        </mxCell>
        <mxCell id="qub3S1aiYJMEABr2UBQj-7" value="" style="edgeStyle=orthogonalEdgeStyle;rounded=0;orthogonalLoop=1;jettySize=auto;html=1;" edge="1" parent="1" source="bHfebhYa-iCUwpoHOR2e-5" target="bHfebhYa-iCUwpoHOR2e-6">
          <mxGeometry relative="1" as="geometry" />
        </mxCell>
        <mxCell id="bHfebhYa-iCUwpoHOR2e-5" value="保存确认" style="rounded=0;whiteSpace=wrap;html=1;" parent="1" vertex="1">
          <mxGeometry x="510" y="250" width="120" height="60" as="geometry" />
        </mxCell>
        <mxCell id="qub3S1aiYJMEABr2UBQj-8" value="" style="edgeStyle=orthogonalEdgeStyle;rounded=0;orthogonalLoop=1;jettySize=auto;html=1;" edge="1" parent="1" source="bHfebhYa-iCUwpoHOR2e-6" target="bHfebhYa-iCUwpoHOR2e-7">
          <mxGeometry relative="1" as="geometry" />
        </mxCell>
        <mxCell id="bHfebhYa-iCUwpoHOR2e-6" value="学生按照要求执行" style="rounded=0;whiteSpace=wrap;html=1;" parent="1" vertex="1">
          <mxGeometry x="350" y="250" width="120" height="60" as="geometry" />
        </mxCell>
        <mxCell id="qub3S1aiYJMEABr2UBQj-9" value="" style="edgeStyle=orthogonalEdgeStyle;rounded=0;orthogonalLoop=1;jettySize=auto;html=1;" edge="1" parent="1" source="bHfebhYa-iCUwpoHOR2e-7" target="bHfebhYa-iCUwpoHOR2e-9">
          <mxGeometry relative="1" as="geometry" />
        </mxCell>
        <mxCell id="bHfebhYa-iCUwpoHOR2e-7" value="宿舍审核离校情况" style="rounded=0;whiteSpace=wrap;html=1;" parent="1" vertex="1">
          <mxGeometry x="190" y="250" width="120" height="60" as="geometry" />
        </mxCell>
        <mxCell id="bHfebhYa-iCUwpoHOR2e-9" value="结束" style="rounded=1;whiteSpace=wrap;html=1;arcSize=50;" parent="1" vertex="1">
          <mxGeometry x="30" y="260" width="120" height="40" as="geometry" />
        </mxCell>
      </root>
    </mxGraphModel>
  </diagram>
</mxfile>
